Coordinates
version=1
nRows=9
nColumns=24
inDegrees=yes

Units are S.I. units (second, meters, Newtons, ...)
Angles are in degrees.

endheader
time	pelvis_tilt	pelvis_list	pelvis_rotation	pelvis_tx	pelvis_ty	pelvis_tz	hip_flexion_r	hip_adduction_r	hip_rotation_r	knee_angle_r	ankle_angle_r	subtalar_angle_r	mtp_angle_r	hip_flexion_l	hip_adduction_l	hip_rotation_l	knee_angle_l	ankle_angle_l	subtalar_angle_l	mtp_angle_l	lumbar_extension	lumbar_bending	lumbar_rotation
      1.18666667	      5.99528721	      2.97039382	      0.49789698	      0.21375355	      1.01131528	      0.29109787	     12.84287560	     -2.37975369	     -1.11329434	    -68.89185449	     -3.06842949	    -13.54483393	     -3.49651794	      2.71703975	      7.76557571	      2.87036142	    -14.13009269	      2.83141738	     -9.42191884	      1.55152086	     -8.00908838	     -0.16354303	      1.98188224
      1.19083333	      6.04655541	      2.81560681	      0.52732499	      0.21887156	      1.01221097	      0.29093298	     13.36181612	     -2.16491927	     -1.04156345	    -68.68090853	     -2.40571796	    -13.82310212	     -3.54723267	      2.16221763	      7.60029758	      2.97321249	    -13.80757965	      2.89886130	     -9.43223292	      1.52925906	     -8.08108935	      0.04874844	      1.95708295
      1.19500000	      6.11688249	      2.69413006	      0.54222062	      0.22399672	      1.01309116	      0.29080794	     13.84808184	     -1.98207709	     -0.95439585	    -68.41939611	     -1.78168296	    -14.25953229	     -3.66145875	      1.56319110	      7.47352542	      3.11747697	    -13.43789489	      2.96031980	     -9.49361037	      1.47964574	     -8.17482028	      0.17624163	      1.92058138
      1.19916667	      6.16544857	      2.54396589	      0.56971731	      0.22909202	      1.01392353	      0.29066301	     14.33677682	     -1.77260653	     -0.88527869	    -68.08219630	     -1.12871023	    -14.53812997	     -3.72640953	      1.01498065	      7.31322326	      3.23813421	    -13.11720938	      3.02016778	     -9.52412694	      1.44788156	     -8.25488951	      0.38211649	      1.89673101
      1.20333333	      6.26845945	      2.41253053	      0.59152141	      0.23421253	      1.01480126	      0.29055035	     14.74024582	     -1.58114531	     -0.81594028	    -67.67380142	     -0.52121528	    -14.94644620	     -3.85307916	      0.38096991	      7.17246512	      3.38977207	    -12.74502676	      3.07454193	     -9.60808429	      1.38740081	     -8.38397732	      0.52338672	      1.86031518
      1.20750000	      6.28776086	      2.24290206	      0.63352153	      0.23930345	      1.01552644	      0.29041641	     15.21834078	     -1.35373999	     -0.76785698	    -67.19954778	      0.10396866	    -15.18133487	     -3.90592785	     -0.11907604	      6.98667433	      3.50047847	    -12.45263797	      3.14185913	     -9.64032279	      1.35926302	     -8.41032795	      0.73697413	      1.84127867
      1.21166667	      6.39319760	      2.12259537	      0.65172917	      0.24439349	      1.01633653	      0.29032717	     15.58638407	     -1.17417745	     -0.69779525	    -66.67451440	      0.68513537	    -15.62157664	     -4.04659675	     -0.75590834	      6.85845387	      3.67420217	    -12.07273633	      3.19211966	     -9.75786580	      1.28893638	     -8.55953588	      0.87087462	      1.79692420
      1.21583333	      6.46451575	      1.96155828	      0.68846036	      0.24950942	      1.01709903	      0.29020881	     15.95685905	     -0.95825435	     -0.65790941	    -66.05409820	      1.19482920	    -15.97817439	     -4.37492836	     -1.34857804	      6.68542036	      3.85335851	    -11.70561613	      3.18454674	     -9.93863253	      1.12433709	     -8.64124393	      1.07221139	      1.76165109
      1.22000000	      6.52659286	      1.80924760	      0.72431641	      0.25456900	      1.01776674	      0.29012136	     16.32984690	     -0.74652967	     -0.60819767	    -65.39653465	      1.73082871	    -16.31805033	     -4.70170873	     -1.90700703	      6.51706132	      4.00777687	    -11.38166141	      3.24038118	    -10.01401369	      0.96471919	     -8.74664954	      1.24797529	      1.72211311
